<?xml version="1.0" encoding="UTF-8"?>
<svg width="1200pt" height="1200pt" version="1.1" viewBox="0 0 1200 1200" xmlns="http://www.w3.org/2000/svg">
 <path d="m285.6 165.6c10.801-7.1992 21.602-12 33.602-18 6-2.3984 10.801-4.8008 16.801-8.3984 1.1992-1.1992 10.801-4.8008 7.1992-3.6016-3.6016 2.3984 2.3984-1.1992 2.3984-1.1992 2.3984-1.1992 4.8008-2.3984 8.3984-3.6016 15.602-6 32.398-12 49.199-16.801 94.801-28.801 195.6-37.199 295.2-22.801 76.801 12 152.4 37.199 220.8 72 13.199 7.1992 30 3.6016 37.199-9.6016 7.1992-12 3.6016-31.199-9.6016-37.199-120-60-254.4-92.398-390-84-87.602 6-172.8 26.398-252 62.398-15.602 7.1992-31.199 14.398-45.602 24-12 8.3984-18 24-9.6016 37.199 6.0039 12.004 24.004 18.004 36.004 9.6055z"/>
 <path d="m224.4 958.8c-13.199-32.398-20.398-66-26.398-100.8-1.1992-7.1992-2.3984-15.602-3.6016-22.801 0-1.1992-1.1992-8.3984 0 0 0-2.3984 0-3.6016-1.1992-6 0-4.8008-1.1992-9.6016-1.1992-14.398-2.3984-18-2.3984-36-2.3984-55.199 0-19.199 1.1992-39.602 3.6016-58.801 0-2.3984 0-4.8008 1.1992-7.1992-1.1992 6 0-1.1992 0-2.3984 1.1992-4.8008 1.1992-9.6016 2.3984-14.398 2.3984-10.801 3.6016-21.602 7.1992-31.199 12-43.199 26.398-78 52.801-115.2 12-16.801 26.398-33.602 43.199-49.199 19.199-18 38.398-33.602 61.199-48 56.398-36 121.2-61.199 188.4-67.199 73.199-7.1992 146.4 3.6016 214.8 30 54 20.398 103.2 51.602 142.8 93.602 21.602 21.602 38.398 46.801 54 73.199 8.3984 14.398 16.801 30 24 45.602 3.6016 8.3984 8.3984 16.801 12 25.199-2.3984-4.8008-1.1992-1.1992 0 0 3.6016 8.3984 6 16.801 8.3984 25.199 2.3984 7.1992 3.6016 14.398 4.8008 21.602 1.1992 3.6016 1.1992 8.3984 2.3984 13.199 0 2.3984 1.1992 4.8008 1.1992 7.1992-1.1992-7.1992 0 3.6016 0 4.8008 1.1992 9.6016 1.1992 19.199 1.1992 30v15.602 8.3984 4.8008 0c-3.6016 24-8.3984 37.199-22.801 56.398 2.3984-3.6016-2.3984 3.6016-2.3984 3.6016l-6 6c-3.6016 3.6016-7.1992 7.1992-9.6016 8.3984-12 9.6016-26.398 15.602-40.801 19.199-31.199 9.6016-67.199 7.1992-97.199-8.3984-22.801-12-39.602-28.801-51.602-51.602-2.3984-4.8008-3.6016-7.1992-6-14.398-1.1992-3.6016-2.3984-8.3984-2.3984-12-1.1992-4.8008-4.8008-14.398 0-3.6016-2.3984-6 0-14.398-1.1992-20.398 0-9.6016-2.3984-19.199-3.6016-30-26.398-132-214.8-172.8-300-74.398-64.801 74.398-46.801 183.6-12 267.6 39.602 97.199 115.2 174 208.8 220.8 30 15.602 62.398 27.602 94.801 38.398 33.602 10.801 48-42 14.398-52.801-57.602-19.199-116.4-46.801-162-85.199-38.398-31.199-64.801-64.801-88.801-106.8-4.8008-9.6016-9.6016-19.199-14.398-28.801-2.3984-4.8008 1.1992 2.3984-1.1992-2.3984-1.1992-2.3984-2.3984-4.8008-2.3984-6-2.3984-4.8008-3.6016-9.6016-4.8008-14.398-6-16.801-10.801-34.801-14.398-52.801-1.1992-8.3984-2.3984-15.602-3.6016-22.801 0-2.3984 0-3.6016-1.1992-4.8008-1.1992-6 0 2.3984 0 0 0-3.6016-1.1992-7.1992-1.1992-10.801-3.6016-30 1.1992-60 16.801-86.398 33.602-55.199 99.602-64.801 154.8-42 20.398 8.3984 39.602 22.801 51.602 42 14.398 22.801 13.199 48 16.801 75.602 1.1992 7.1992 0 2.3984 0 1.1992 0 3.6016 1.1992 6 1.1992 9.6016 1.1992 3.6016 1.1992 8.3984 2.3984 12 2.3984 8.3984 6 18 9.6016 25.199 3.6016 8.3984 9.6016 18 15.602 25.199 22.801 30 54 51.602 91.199 62.398 64.801 19.199 144 2.3984 188.4-50.398 54-64.801 48-159.6 22.801-236.4-16.801-50.398-45.602-98.398-78-139.2-36-46.801-81.602-86.398-134.4-114-136.8-72-301.2-81.602-441.6-16.801-97.199 44.398-181.2 120-223.2 219.6-32.398 76.801-42 162-33.602 246 4.8008 50.398 14.398 100.8 31.199 148.8 1.1992 2.3984 2.3984 4.8008 2.3984 7.1992 6 14.398 18 24 33.602 19.199 7.1992-1.2148 19.199-18.016 13.199-32.414z"/>
 <path d="m138 457.2c1.1992-2.3984 2.3984-3.6016 4.8008-6 2.3984-2.3984 3.6016-4.8008 4.8008-7.1992 1.1992-2.3984 6-7.1992 0 0 1.1992-2.3984 3.6016-3.6016 4.8008-6 15.602-19.199 33.602-38.398 51.602-56.398 27.602-26.398 51.602-45.602 82.801-66 37.199-24 76.801-44.398 117.6-58.801 48-16.801 98.398-27.602 150-31.199 22.801-1.1992 45.602-1.1992 67.199 0 10.801 0 22.801 1.1992 33.602 1.1992 6 0 13.199 1.1992 19.199 2.3984 3.6016 0 7.1992 1.1992 10.801 1.1992 7.1992 1.1992-6-1.1992 1.1992 0 2.3984 0 4.8008 0 6 1.1992 36 6 72 14.398 106.8 26.398 103.2 36 195.6 109.2 261.6 199.2 8.3984 12 24 18 37.199 9.6016 12-7.1992 18-25.199 9.6016-37.199-64.801-90-150-163.2-252-207.6-68.398-30-141.6-46.801-216-50.398-70.801-3.6016-144 1.1992-212.4 20.398-88.801 25.199-170.4 72-240 132-34.801 31.199-69.602 66-94.801 105.6-20.41 30.004 26.391 57.602 45.59 27.602z"/>
 <path d="m570 751.2c-1.1992 51.602 16.801 103.2 42 147.6 36 64.801 93.602 115.2 164.4 136.8 55.199 16.801 110.4 14.398 168 8.3984 14.398-1.1992 27.602-12 27.602-27.602 0-14.398-12-28.801-27.602-27.602-46.801 4.8008-93.602 8.3984-136.8-2.3984-19.199-4.8008-32.398-9.6016-46.801-16.801-7.1992-3.6016-14.398-8.3984-21.602-12-3.6016-2.3984-6-4.8008-9.6016-6-2.3984-1.1992-3.6016-2.3984-4.8008-3.6016-1.1992-1.1992-1.1992-1.1992 0 0-1.1992-1.1992-2.3984-1.1992-2.3984-2.3984-12-9.6016-24-21.602-33.602-33.602-2.3984-2.3984-4.8008-6-7.1992-8.3984 3.6016 3.6016-3.6016-4.8008-3.6016-6-4.8008-6-8.3984-13.199-13.199-19.199-7.1992-12-13.199-24-19.199-37.199 0-1.1992-1.1992-2.3984-1.1992-3.6016 2.3984 6 1.1992 2.3984 0 1.1992-1.1992-3.6016-2.3984-6-3.6016-9.6016-2.3984-6-3.6016-12-6-18-3.6016-10.801-6-21.602-8.3984-32.398 0-1.1992-1.1992-9.6016-1.1992-3.6016 1.1992 6 0-2.3984 0-3.6016v-21.602c0.003907-33.594-53.996-33.594-55.195 1.207z"/>
 <path d="m920.4 753.6c2.3984-69.602-25.199-138-68.398-192-68.398-86.398-188.4-127.2-296.4-112.8-104.4 13.199-207.6 84-250.8 181.2-27.602 63.602-32.398 133.2-22.801 200.4 18 122.4 81.602 234 170.4 319.2 25.199 24 63.602-14.398 38.398-38.398-74.398-72-129.6-162-151.2-264-2.3984-8.3984-3.6016-16.801-4.8008-24 0-1.1992 0-3.6016-1.1992-4.8008-1.1992-7.1992 1.1992 6 0-1.1992 0-3.6016-1.1992-8.3984-1.1992-12-1.1992-10.801-2.3984-22.801-2.3984-33.602 0-24 2.3984-46.801 7.1992-69.602 9.6016-44.398 31.199-85.199 62.398-116.4 15.602-15.602 27.602-24 43.199-36 21.602-14.398 43.199-26.398 68.398-34.801 57.602-19.199 117.6-16.801 174 1.1992 42 13.199 78 34.801 106.8 64.801 15.602 15.602 24 26.398 36 46.801 4.8008 7.1992 8.3984 15.602 12 24 1.1992 2.3984 2.3984 3.6016 2.3984 6 2.3984 6-1.1992-3.6016 1.1992 2.3984 1.1992 3.6016 3.6016 8.3984 4.8008 12 4.8008 14.398 9.6016 28.801 12 44.398 0 3.6016 1.1992 6 1.1992 9.6016-1.1992-9.6016 0 0 0 2.3984 1.1992 9.6016 1.1992 19.199 1.1992 27.602 2.4062 33.605 57.605 33.605 57.605-2.3945z"/>
</svg>
